<svg width="19" height="19" viewBox="0 0 19 19" fill="none" xmlns="http://www.w3.org/2000/svg">
<path d="M12.373 0C13.5634 0 14.585 0.0622837 15.4385 0.251953C16.3028 0.444024 17.0523 0.77894 17.6367 1.36328C18.2211 1.9477 18.5559 2.69728 18.748 3.56152C18.9377 4.415 19 5.43661 19 6.62695V12.373C19 13.5635 18.9378 14.585 18.748 15.4385C18.556 16.3029 18.2212 17.0523 17.6367 17.6367C17.0523 18.2212 16.3029 18.556 15.4385 18.748C14.585 18.9377 13.5635 19 12.373 19H6.62695C5.43664 19 4.41499 18.9377 3.56152 18.748C2.6973 18.5559 1.94769 18.2211 1.36328 17.6367C0.77894 17.0523 0.444024 16.3028 0.251953 15.4385C0.0622774 14.585 9.51742e-07 13.5634 0 12.373V6.62695C1.24573e-05 5.43661 0.0622724 4.415 0.251953 3.56152C0.444048 2.69725 0.778861 1.94772 1.36328 1.36328C1.9477 0.778858 2.69727 0.444054 3.56152 0.251953C4.41499 0.0622756 5.43664 1.45718e-05 6.62695 0H12.373ZM6.62695 1.90039C5.48002 1.90041 4.6228 1.96315 3.97363 2.10742C3.33546 2.24931 2.95743 2.45665 2.70703 2.70703C2.45665 2.95743 2.24931 3.33544 2.10742 3.97363C1.96315 4.62281 1.9004 5.47999 1.90039 6.62695V8.6416C2.58416 7.98411 3.22051 7.446 3.83691 7.05371C4.58393 6.57836 5.35117 6.28516 6.17773 6.28516C7.00413 6.28526 7.77062 6.57844 8.51758 7.05371C9.25522 7.52313 10.0215 8.20122 10.8633 9.04297L12.4072 10.5869C13.3414 9.81683 14.2582 9.28495 15.2441 9.16211C15.8934 9.08128 16.5059 9.18401 17.1006 9.42383V6.62695C17.1006 5.47999 17.0378 4.62281 16.8936 3.97363C16.7517 3.33534 16.5434 2.95745 16.293 2.70703C16.0425 2.45669 15.6647 2.24928 15.0264 2.10742C14.3772 1.96313 13.5202 1.90039 12.373 1.90039H6.62695ZM13.3008 3.7998C14.3501 3.79991 15.2001 4.65094 15.2002 5.7002C15.2002 6.74949 14.3501 7.60048 13.3008 7.60059C12.2514 7.60059 11.4004 6.74956 11.4004 5.7002C11.4004 4.65087 12.2514 3.7998 13.3008 3.7998Z" fill="#1B2128"/>
</svg>
