<svg width="27" height="25" viewBox="0 0 27 25" fill="none" xmlns="http://www.w3.org/2000/svg">
<g clip-path="url(#clip0_321_6145)">
<path d="M14.0761 2.00024C14.1696 7.96418 18.9956 12.7793 24.964 12.8549L25.1066 12.8558C19.0614 12.8558 14.1519 17.718 14.0755 23.7451L14.0746 23.8878C14.0746 17.8426 9.21231 12.933 3.18529 12.8566L3.0426 12.8558C9.07643 12.8558 13.9788 8.01163 14.0731 2.00024H14.0761Z" fill="#728A96"/>
</g>
<g clip-path="url(#clip1_321_6145)">
<path d="M21.5048 1.00024C21.5386 3.15402 23.2814 4.89291 25.4368 4.92023L25.4883 4.92054C23.3052 4.92054 21.5322 6.67646 21.5046 8.85304L21.5043 8.90457C21.5043 6.72144 19.7484 4.94844 17.5718 4.92085L17.5203 4.92054C19.6993 4.92054 21.4697 3.17116 21.5038 1.00024H21.5048Z" fill="#728A96"/>
</g>
<g clip-path="url(#clip2_321_6145)">
<path d="M5.92773 4.00024C5.94548 5.13191 6.86122 6.04558 7.99373 6.05994L8.02079 6.0601C6.87371 6.0601 5.94211 6.98272 5.92761 8.12637L5.92745 8.15344C5.92745 7.00635 5.00482 6.07476 3.86118 6.06026L3.83411 6.0601C4.97904 6.0601 5.90927 5.14092 5.92716 4.00024H5.92773Z" fill="#728A96"/>
</g>
<g clip-path="url(#clip3_321_6145)">
<path d="M7.00247 17.0002C7.01938 18.0785 7.89188 18.949 8.97092 18.9627L8.99671 18.9628C7.90378 18.9628 7.01616 19.8419 7.00235 20.9316L7.0022 20.9574C7.0022 19.8644 6.12313 18.9768 5.03349 18.963L5.00769 18.9628C6.09856 18.9628 6.98488 18.0871 7.00193 17.0002H7.00247Z" fill="#728A96"/>
</g>
<defs>
<clipPath id="clip0_321_6145">
<rect width="22.1248" height="21.9057" fill="white" transform="translate(3 2.00024)"/>
</clipPath>
<clipPath id="clip1_321_6145">
<rect width="7.99" height="7.91089" fill="white" transform="translate(17.505 1.00024)"/>
</clipPath>
<clipPath id="clip2_321_6145">
<rect width="4.19822" height="4.15665" fill="white" transform="translate(3.82605 4.00024)"/>
</clipPath>
<clipPath id="clip3_321_6145">
<rect width="4" height="3.9604" fill="white" transform="translate(5 17.0002)"/>
</clipPath>
</defs>
</svg>
